<?xml version="1.0" standalone="no"?>
<!DOCTYPE svg PUBLIC "-//W3C//DTD SVG 1.1//EN" "http://www.w3.org/Graphics/SVG/1.1/DTD/svg11.dtd" >
<svg xmlns="http://www.w3.org/2000/svg">
<metadata>
Created by FontForge 20120731 at Mon Sep 26 16:09:12 2016
 By admin
</metadata>
<defs>
<font id="iconfont" horiz-adv-x="1024" >
  <font-face 
    font-family="iconfont"
    font-weight="500"
    font-stretch="normal"
    units-per-em="1024"
    panose-1="2 0 6 3 0 0 0 0 0 0"
    ascent="896"
    descent="-128"
    x-height="792"
    bbox="-1 -177 1597.51 897"
    underline-thickness="50"
    underline-position="-100"
    unicode-range="U+0078-E63D"
  />
<missing-glyph horiz-adv-x="374" 
d="M34 0v682h272v-682h-272zM68 34h204v614h-204v-614z" />
    <glyph glyph-name=".notdef" horiz-adv-x="374" 
d="M34 0v682h272v-682h-272zM68 34h204v614h-204v-614z" />
    <glyph glyph-name=".null" horiz-adv-x="0" 
 />
    <glyph glyph-name="nonmarkingreturn" horiz-adv-x="341" 
 />
    <glyph glyph-name="x" unicode="x" horiz-adv-x="1001" 
d="M281 543q-27 -1 -53 -1h-83q-18 0 -36.5 -6t-32.5 -18.5t-23 -32t-9 -45.5v-76h912v41q0 16 -0.5 30t-0.5 18q0 13 -5 29t-17 29.5t-31.5 22.5t-49.5 9h-133v-97h-438v97zM955 310v-52q0 -23 0.5 -52t0.5 -58t-10.5 -47.5t-26 -30t-33 -16t-31.5 -4.5q-14 -1 -29.5 -0.5
t-29.5 0.5h-32l-45 128h-439l-44 -128h-29h-34q-20 0 -45 1q-25 0 -41 9.5t-25.5 23t-13.5 29.5t-4 30v167h911zM163 247q-12 0 -21 -8.5t-9 -21.5t9 -21.5t21 -8.5q13 0 22 8.5t9 21.5t-9 21.5t-22 8.5zM316 123q-8 -26 -14 -48q-5 -19 -10.5 -37t-7.5 -25t-3 -15t1 -14.5
t9.5 -10.5t21.5 -4h37h67h81h80h64h36q23 0 34 12t2 38q-5 13 -9.5 30.5t-9.5 34.5q-5 19 -11 39h-368zM336 498v228q0 11 2.5 23t10 21.5t20.5 15.5t34 6h188q31 0 51.5 -14.5t20.5 -52.5v-227h-327z" />
    <glyph glyph-name="uniE600" unicode="&#xe600;" 
d="M870 742q-73 73 -167.5 110.5t-190.5 37.5t-190.5 -37.5t-167 -110.5t-110.5 -167.5t-38 -190.5t38 -190.5t110.5 -167.5t167 -110.5t190.5 -37.5t190.5 37.5t167.5 110.5t111 167.5t38 190.5t-38 190.5t-111 167.5zM183 55q-67 67 -101.5 154t-34.5 175t34.5 175
t101.5 154q89 89 209 121t240 0t209.5 -121t121 -209t0 -240t-121 -209t-209.5 -121t-240 0t-209 121zM741 584l-28 29l-201 -200l-199 199l-29 -29l200 -199l-200 -199l29 -29l199 199l201 -200l28 29l-200 200z" />
    <glyph glyph-name="uniE601" unicode="&#xe601;" 
d="M511.5 831q-90.5 0 -173.5 -35.5t-143 -95t-95 -142.5t-35 -174t35 -173.5t95 -142.5t143 -95.5t173.5 -35.5t173.5 35.5t143 95.5t95 142.5t35.5 173.5t-35 174t-95.5 142.5t-143 95t-173.5 35.5zM452 184h-1v0l-38 38l-179 180l38 37l179 -179l318 318l38 -38zM512 -63
q-91 0 -175 35q-80 34 -142 96t-96 142q-35 83 -35 174t35 174q34 81 96 142.5t142 95.5q84 36 175 36t174 -36q80 -34 142 -95.5t96 -142.5q35 -83 35 -174t-35 -174q-34 -80 -96 -142t-142 -96q-83 -35 -174 -35zM511.5 831q-90.5 0 -173 -35.5t-142.5 -95.5t-95.5 -142.5
t-35.5 -173.5t35.5 -173.5t95.5 -142.5t142.5 -95t173 -35t173.5 35t142.5 95t95 142.5t35.5 173.5t-35.5 173.5t-95 142.5t-142.5 95.5t-173.5 35.5zM451 183l-38 39l-180 180l39 38l179 -180l318 318l39 -38zM414 222l37 -37l355 355l-37 37l-318 -318l-179 180l-38 -37z
" />
    <glyph glyph-name="uniE602" unicode="&#xe602;" 
d="M843 695h-657q-19 0 -33 -13.5t-14 -33.5v-539q0 -20 14 -33.5t33 -13.5h657q20 0 33.5 13.5t13.5 33.5v539q0 20 -13.5 33.5t-33.5 13.5zM843 109h-657v138l188 182l195 -194q6 -7 15 -6.5t17 6.5l86 77l154 -159q1 0 2 -1v-43zM843 219l-138 141q-14 14 -30 2l-89 -77
l-194 192q-7 8 -17 9q-10 0 -17 -7l-172 -167v336h657v-429zM679 461q19 0 33 13.5t14 33t-14 33t-33 13.5t-33 -13.5t-14 -33t14 -33t33 -13.5z" />
    <glyph glyph-name="uniE603" unicode="&#xe603;" 
d="M988 68h-167q-15 0 -25.5 11t-10.5 26v425q-2 111 -81.5 187t-191.5 77q-112 -1 -191.5 -77t-80.5 -187l-1 -369q2 -6 6 -17t18 -37.5t30.5 -46t44.5 -33t59 -8.5q6 19 23 29t34 10h118q29 0 50.5 -21.5t21.5 -51.5v-22q0 -30 -21 -51.5t-51 -21.5h-108q-23 0 -41 13
t-26 33q-1 1 -5.5 1t-11.5 0.5t-14 1.5q-30 11 -57.5 28.5t-45 34.5t-30.5 32.5t-18.5 24.5t-5.5 10q-4 -1 -6 -1h-167q-15 0 -25.5 11t-10.5 26v370q0 15 10.5 25.5t25.5 10.5h119v20v-1q1 71 21.5 128.5t50 92.5t69.5 61t73 38t69 19t48.5 8t19.5 1h6h6q7 0 19.5 -1
t48.5 -8t69 -19t73.5 -38t69.5 -61t49.5 -92.5t21.5 -128.5v-19h119q15 0 25.5 -10.5t10.5 -25.5v-370q0 -15 -10.5 -26t-25.5 -11zM163 405q0 9 -4.5 15.5t-10.5 6.5h-61q-6 0 -10.5 -6.5t-4.5 -15.5v-228q0 -9 4.5 -15.5t10.5 -6.5h61q6 0 10.5 6.5t4.5 15.5v228zM952 405
q0 9 -4 15.5t-11 6.5h-61q-6 0 -10.5 -6.5t-4.5 -15.5v-228q0 -9 4.5 -15.5t10.5 -6.5h61q7 0 11 6.5t4 15.5v228z" />
    <glyph glyph-name="uniE604" unicode="&#xe604;" 
d="M512 384zM64 384q0 91 35.5 174t95.5 143t143 95.5t174 35.5t174 -35.5t143 -95.5t95.5 -143t35.5 -174t-35.5 -174t-95.5 -143t-143 -95.5t-174 -35.5t-174 35.5t-143 95.5t-95.5 143t-35.5 174z" />
    <glyph glyph-name="uniE605" unicode="&#xe605;" 
d="M839.5 551q-22.5 0 -38.5 -16t-16 -39v-216q0 -23 16 -39.5t38.5 -16.5t38.5 16.5t16 39.5v216q0 23 -16 39t-38.5 16zM182.5 551q-22.5 0 -38.5 -16t-16 -39v-216q0 -23 16 -39.5t38.5 -16.5t38.5 16.5t16 39.5v216q0 23 -16 39t-38.5 16zM270 550v-395
q0 -18 12.5 -30.5t29.5 -12.5h49v-120q0 -23 16 -39.5t38.5 -16.5t38.5 16.5t16 39.5v120h84v-120q0 -23 16 -39.5t39 -16.5t38.5 16.5t15.5 39.5v120h49q18 0 30 12.5t12 30.5v395h-484zM626 754l45 65q5 7 -1.5 11.5t-11.5 -2.5l-46 -68q-48 19 -101 19t-101 -19l-46 68
q-5 7 -11 2.5t-2 -11.5l45 -65q-54 -25 -88.5 -70t-38.5 -99h484q-4 54 -38.5 99t-88.5 70zM409 652q-11 0 -19 8t-8 19t8 18.5t19 7.5t19 -7.5t8 -18.5t-8 -19t-19 -8zM617 652q-11 0 -19 8t-8 19t8 18.5t19 7.5t18.5 -7.5t7.5 -18.5t-7.5 -19t-18.5 -8z" />
    <glyph glyph-name="uniE606" unicode="&#xe606;" 
d="M370 564l105 -185h-76v-26h90v-50h-90v-26h90v-81h45v81h92v26h-92v50h92v26h-77l105 185h-51l-91 -169l-91 169h-51zM205 207q-60 106 -44 223.5t98 201.5v-71q0 -5 3.5 -9t9.5 -4h25q5 0 9 4t4 9v114v25q0 6 -4 9.5t-9 3.5h-25h-114q-6 0 -9.5 -3.5t-3.5 -9.5v-25
q0 -5 3.5 -9t9.5 -4h60q-91 -96 -107.5 -228t50.5 -252q38 -65 95 -111.5t122.5 -69t138 -22t140.5 26.5l-25 44q-120 -43 -241 1t-186 156zM205 207zM639 715q117 -45 180 -154q60 -106 44 -223.5t-98 -201.5v71q0 5 -3.5 9t-9.5 4h-25q-5 0 -9 -4t-4 -9v-114v-25
q0 -6 4 -9.5t9 -3.5h25h114q6 0 9.5 3.5t3.5 9.5v25q0 5 -3.5 9t-9.5 4h-60q91 96 107.5 228t-50.5 252q-38 65 -95 111.5t-122.5 69t-138 22t-140.5 -26.5l25 -44q97 34 197 12z" />
    <glyph glyph-name="uniE607" unicode="&#xe607;" 
d="M860 807q-12 25 -47 25h-331q-25 0 -49.5 -14t-36.5 -35l-228 -392q-16 -28 -1.5 -51.5t47.5 -23.5h55v-1q-1 -1 -1 -3l-92 -324q-10 -25 2 -41q9 -14 27 -14q15 0 33 15l1 1l505 448q28 23 18 48t-46 25h-101l236 287q21 26 9 50zM561 491q-21 -26 -9 -50.5t47 -24.5h84
l-437 -388l76 269q10 28 -5 50q-17 23 -48 23h-49l225 387q5 8 16.5 14.5t20.5 6.5h315zM465 701l-59 -103q-7 -11 5 -18q3 -2 7 -2q8 0 12 7l60 103q5 9 17.5 16.5t23.5 7.5h37q6 0 10 3.5t4 9.5t-4 10t-10 4h-37q-18 0 -37.5 -11t-28.5 -27zM398 557q-13 6 -20 -5l-12 -22
q-7 -12 5 -18q3 -2 7 -2q8 0 12 7l13 22q7 11 -5 18z" />
    <glyph glyph-name="uniE608" unicode="&#xe608;" 
d="M526 491v-23q23 -2 39 -9q17 -7 28 -21q10 -11 15 -22.5t5 -21.5t-7.5 -18t-18.5 -8q-21 0 -27 23q-7 26 -34 35v-88q26 -7 42 -13t28 -18q13 -11 20 -27t7 -36q0 -24 -11 -45q-12 -22 -33 -35q-23 -13 -53 -16v-53q0 -12 -2 -18q-3 -5 -11 -5t-11 4.5t-3 14.5v57
q-25 3 -43.5 11.5t-30.5 22.5q-12 13 -18 27t-6 28q0 11 8 19t19 8q10 0 16.5 -4.5t9.5 -12.5q5 -17 10 -27q4 -9 12.5 -16.5t22.5 -11.5v98q-28 8 -47 18t-31 27q-12 18 -12 46q0 37 23 60t67 27v23q0 18 14 18q13 0 13 -18zM499 346v81q-17 -5 -27 -14t-10 -26t9 -26
q9 -8 28 -15zM526 283v-93q22 4 33 17q12 13 12 30q0 18 -11.5 28.5t-33.5 17.5zM605 668h-186q-10 0 -17 7l-136 155q-10 11 -4 23.5t20 12.5q12 0 25 11q25 19 51.5 19t51.5 -19q13 -11 25 -11t25 11q25 19 51.5 19t51.5 -19q14 -11 25.5 -11t25.5 11q25 19 51.5 19
t51.5 -19q13 -11 25 -11q14 0 20 -12.5t-4 -23.5l-137 -155q-6 -7 -16 -7zM429 712h166l108 121q-5 3 -13 9q-13 10 -24.5 10t-25.5 -10q-25 -19 -51.5 -19t-51.5 19q-13 10 -25 10t-25 -10q-25 -19 -51.5 -19t-51.5 19q-14 10 -25.5 10t-24.5 -10q-7 -5 -13 -9zM512 -128
q-140 0 -239.5 19.5t-136.5 38.5q-22 10 -34.5 25t-16 27.5t-1.5 29t5 24.5t9 21q6 14 7 18q1 8 6 90q14 259 27 315q7 30 44.5 67.5t88.5 72t80.5 52t51.5 29.5q4 2 10 2h198q6 0 11 -2q22 -12 51 -29.5t80.5 -52t88.5 -72t44 -67.5q13 -56 27 -313q5 -84 6 -92q1 -4 7 -18
q6 -13 9 -21t5.5 -24.5t-1.5 -29t-16.5 -27.5t-33.5 -25q-37 -19 -148.5 -38.5t-228.5 -19.5zM418 660q-80 -44 -154.5 -100t-82.5 -90q-13 -53 -27 -307q-4 -86 -6 -95q-1 -9 -10 -29q-13 -24 -11 -40.5t28 -29.5q33 -17 128 -35t229 -18q115 0 221 18.5t136 34.5
q26 13 28 29.5t-11 40.5q-8 19 -10 29t-6 96q-14 254 -26 306q-9 34 -83.5 89.5t-154.5 100.5h-188z" />
    <glyph glyph-name="uniE609" unicode="&#xe609;" 
d="M774 357q0 31 10 59.5t22.5 46.5t30.5 34t25.5 21.5t15.5 9.5l1 1q-20 27 -46.5 46t-52.5 27t-44 11.5t-34 4.5q-33 3 -70.5 -7.5t-69 -22.5t-45.5 -12q-16 0 -70.5 20t-88.5 20q-62 -1 -115.5 -31.5t-84.5 -81.5q-31 -50 -38.5 -113t5.5 -124t37.5 -117t56.5 -99
q19 -26 32.5 -42t34 -35.5t42 -28.5t43.5 -8q28 1 73.5 19t85.5 18q37 0 82.5 -18t76.5 -18q24 0 44.5 9t40 27t32 33t31.5 41q39 54 67 128v1q-8 2 -17 6.5t-31 20t-38.5 34t-29.5 51t-14 69.5zM652.5 691.5q26.5 30.5 40.5 68t10 75.5q-37 -1 -76.5 -20t-65.5 -48
q-26 -28 -41.5 -65.5t-10.5 -73.5q39 -3 78 15t65.5 48.5z" />
    <glyph glyph-name="uniE60A" unicode="&#xe60a;" horiz-adv-x="1348" 
d="M1232 -74q25 0 43 16t18 38v808q0 22 -18 38t-43 16h-1116q-26 0 -44 -16t-18 -38v-808q0 -22 18 -38t44 -16h1116zM1232 -128h-1116q-48 0 -82 31.5t-34 76.5v808q0 45 34 76.5t82 31.5h1116q47 0 81 -31.5t34 -76.5v-808q0 -45 -34 -76.5t-81 -31.5zM161 110
q-1 74 16 89q1 2 11.5 13.5t18 17t29.5 14t54 12.5q18 3 32 7.5t22.5 10t14 11t8 11t3.5 9.5t1.5 6.5t0.5 1.5l-2 42q-5 2 -13 6.5t-24.5 19.5t-22.5 32q-7 2 -12 5t-7.5 5t-4 5t-2 5t-1 6.5t-1.5 6.5l-1 36q2 22 12 22h3q2 0 5 3.5t1 9.5v44q0 27 1 38q2 17 13 37t32 24
q4 1 30 5q4 0 10.5 3.5t17.5 3.5l42 9q11 0 25.5 -16.5t17.5 -17.5q4 0 14 1.5t22 -0.5q9 -2 15 -7.5t9 -14t4 -15t1 -16.5v-11q6 -52 2 -70q-2 -6 0 -9t4 -3h2q10 0 14 -14.5t3 -28.5l-1 -15q-1 -5 -4.5 -9.5t-5.5 -6t-11 -7t-14 -7.5q-6 -17 -20 -33.5t-26 -24.5l-11 -8
v-39v-2v-5q0 -2 1 -5.5t3.5 -7t5.5 -7.5t8.5 -8t12.5 -7t17 -6t23 -5q25 -4 44 -9t32.5 -12.5t19.5 -11.5t15 -14l10 -10q7 -7 12 -29.5t6 -41.5l1 -18h-538zM806 213h334v-105h-334v105zM806 423h334v-105h-334v105zM806 633h334v-105h-334v105z" />
    <glyph glyph-name="uniE60B" unicode="&#xe60b;" 
d="M512 833q-91 0 -174.5 -35.5t-143.5 -95.5t-95.5 -143t-35.5 -174t35.5 -174t95.5 -143t143.5 -95.5t174.5 -35.5t174.5 35.5t143.5 95.5t95.5 143t35.5 174t-35.5 174t-95.5 143t-143.5 95.5t-174.5 35.5zM826 345l-88 87l-257 -268l-3 6l-145 170l-135 -114v153
l152 133l6 -6l135 -159l162 169l-87 86l260 2v-259z" />
    <glyph glyph-name="uniE60C" unicode="&#xe60c;" 
d="M510 791q-19 0 -34 -9t-23 -25l-97 -197l-223 -33q-18 -2 -31 -13t-19 -27q-12 -34 14 -60l164 -160l-38 -222q-6 -36 26 -58q16 -10 36 -10q15 0 30 7l195 103v704z" />
    <glyph glyph-name="uniE60D" unicode="&#xe60d;" horiz-adv-x="1161" 
d="M1125 364l-493 492l-2 2l-9 9q-21 22 -52 22t-53 -22l-470 -470l-2 -2l-31 -31q-7 -7 -7 -16t7 -15l31 -42q7 -6 16 -6t15 6l50 47v-349q0 -31 22 -53t53 -22h734q30 0 52 22t22 53v355l54 -50q7 -6 16 -6t15 6l32 39q7 6 7 15t-7 16zM930 0q0 -7 -4.5 -12t-11.5 -5h-196
v171q0 29 -20.5 49.5t-49.5 20.5h-158q-30 0 -50.5 -20.5t-20.5 -49.5v-171h-196q-7 0 -11.5 5t-4.5 12v420l352 353q12 11 23 0l348 -348v-425z" />
    <glyph glyph-name="uniE60E" unicode="&#xe60e;" 
d="M352 448h320l-160 192zM672 320h-320l160 -192z" />
    <glyph glyph-name="uniE60F" unicode="&#xe60f;" 
d="M285 832h-174q-20 0 -33.5 -14t-13.5 -33v-15q0 -170 65 -325q63 -150 178 -265.5t264 -178.5q154 -66 323 -66q10 0 21 1q19 0 32.5 13.5t13.5 33.5q-1 144 -1 174q0 24 -14.5 43t-37.5 26l-143 40q-13 4 -26 4q-39 0 -67 -27l-91 -89q-95 49 -172 125.5t-126 172.5
l88 91q18 18 24 43t-1 50l-40 144q-7 23 -26 37.5t-43 14.5v0zM285 832zM285 832h-174q-20 0 -33.5 -14t-13.5 -33v-15q0 -170 65 -325q63 -150 178 -265.5t264 -178.5q154 -66 323 -66q10 0 21 1q19 0 32.5 13.5t13.5 33.5q-1 144 -1 174q0 24 -14.5 43t-37.5 26l-143 40
q-13 4 -26 4q-39 0 -67 -27l-91 -89q-95 49 -172 125.5t-126 172.5l88 91q18 18 24 43t-1 50l-40 144q-7 23 -26 37.5t-43 14.5v0zM285 832z" />
    <glyph glyph-name="uniE610" unicode="&#xe610;" 
d="M230 493h237q5 0 9 4t4 9v25q0 5 -4 9t-9 4h-237q-4 0 -8 -4t-4 -9v-25q2 -3 4 -6.5t4 -5t4 -1.5zM230 358h160q5 0 9 4t4 9v26q0 5 -4 9t-9 4h-160q-4 0 -8 -4t-4 -9v-26q2 -2 4 -5.5t4 -5.5t4 -2zM570 333h198q14 0 20.5 6.5t5.5 12.5v6q0 23 -20 32q-10 21 -28.5 37
t-41.5 21q38 19 38 70q0 33 -23 55t-53 22q-33 0 -55 -23.5t-22 -53.5q0 -22 11 -40.5t27 -29.5q-18 -5 -36 -21.5t-28 -36.5q-19 -9 -19 -32q0 -2 0.5 -6.5t7 -11.5t18.5 -7zM845 755h-666q-48 0 -81.5 -34.5t-33.5 -86.5v-506q0 -49 35 -85.5t87 -36.5h665q49 0 82 35
t33 87v506q-4 52 -38.5 86.5t-82.5 34.5zM909 128q0 -25 -21 -44.5t-50 -19.5h-652q-30 0 -50.5 18t-20.5 46v512q0 26 15.5 45t42.5 19h685q28 0 42.5 -17t14.5 -47v-512h-6zM794 250h-564q-4 0 -8 -4t-4 -9v-26q0 -5 4 -9t8 -4h557q5 0 9 4t4 9v26q4 5 1.5 9t-7.5 4z" />
    <glyph glyph-name="uniE611" unicode="&#xe611;" 
d="M687 337h-328q-10 0 -16.5 -7t-6.5 -17t6.5 -17t16.5 -7h328q9 0 16 7t7 17t-7 17t-16 7zM687 479h-328q-10 0 -16.5 -7t-6.5 -16.5t6.5 -16.5t16.5 -7h328q9 0 16 7t7 16.5t-7 16.5t-16 7zM687 621h-328q-10 0 -16.5 -7t-6.5 -17t6.5 -17t16.5 -7h328q9 0 16 7t7 17
t-7 17t-16 7zM757 763h-468q-39 0 -66.5 -28t-27.5 -67v-663h44l97 71l54 -71h39l94 71l87 -71h46l54 71l97 -71h44v663q0 39 -27.5 67t-66.5 28zM804 52l-94 72l-79 -98l-108 98l-117 -95l-70 95l-94 -73v617q0 20 13.5 34t33.5 14h468q19 0 33 -14t14 -34v-616z" />
    <glyph glyph-name="uniE612" unicode="&#xe612;" 
d="M509 810l147 -265l299 -57l-208 -222l38 -300l-276 128l-275 -128l38 300l-208 222l299 57z" />
    <glyph glyph-name="uniE613" unicode="&#xe613;" 
d="M832 7v769q-10 75 -83 84h-477q-80 -9 -96 -84l1 -769l-134 -1v-81l927 -3l-3 84zM321 689h128v-138h-128v138zM450 462v-138l-128 -1v138zM451 49h-131l1 184l131 2zM696 96h-128v138l128 1v-139zM696 324l-128 -1v138l128 1v-138zM696 551h-128v138h128v-138z" />
    <glyph glyph-name="uniE614" unicode="&#xe614;" 
d="M791 827h-556q-23 0 -39.5 -16.5t-16.5 -39.5v-786q0 -23 16.5 -39.5t39.5 -16.5h556q24 0 40.5 16.5t16.5 39.5v786q0 23 -16.5 39.5t-40.5 16.5zM339 43q-21 0 -35.5 15t-14.5 36t14.5 36t35.5 15t36 -15t15 -36t-15 -36t-36 -15zM339 218q-21 0 -35.5 15t-14.5 36
t14.5 35.5t35.5 14.5t36 -14.5t15 -35.5t-15 -36t-36 -15zM339 392q-21 0 -35.5 15t-14.5 36t14.5 36t35.5 15t36 -15t15 -36t-15 -36t-36 -15zM514 43q-21 0 -36 15t-15 36t15 36t36 15t36 -15t15 -36t-15 -36t-36 -15zM514 218q-21 0 -36 15t-15 36t15 35.5t36 14.5
t36 -14.5t15 -35.5t-15 -36t-36 -15zM514 392q-21 0 -36 15t-15 36t15 36t36 15t36 -15t15 -36t-15 -36t-36 -15zM688 43q-21 0 -35.5 15t-14.5 36t14.5 36t35.5 15t36 -15t15 -36t-15 -36t-36 -15zM688 218q-21 0 -35.5 15t-14.5 36t14.5 35.5t35.5 14.5t36 -14.5t15 -35.5
t-15 -36t-36 -15zM688 392q-21 0 -35.5 15t-14.5 36t14.5 36t35.5 15t36 -15t15 -36t-15 -36t-36 -15zM754 621q0 -11 -7.5 -18.5t-18.5 -7.5h-426q-11 0 -18.5 7.5t-7.5 18.5v81q0 11 7.5 18.5t18.5 7.5h426q11 0 18.5 -7.5t7.5 -18.5v-81z" />
    <glyph glyph-name="uniE615" unicode="&#xe615;" 
d="M777 32l-10 5l-269 -156q-28 -16 -44 -4.5t-11 43.5l47 317l-224 218q-23 23 -17.5 42.5t36.5 24.5l303 54l132 291q11 25 27 28.5t30 -13.5v-850z" />
    <glyph glyph-name="uniE616" unicode="&#xe616;" 
d="M256 33l9 4l261 -156q26 -15 41.5 -3.5t11.5 43.5l-45 317l216 218q22 22 16.5 41.5t-35.5 24.5l-293 54l-127 291q-10 25 -26 28.5t-29 -13.5v-849z" />
    <glyph glyph-name="uniE617" unicode="&#xe617;" 
d="M847 -63q6 -32 -9.5 -44t-43.5 2l-274 142l-269 -156q-28 -16 -44 -4.5t-11 43.5l47 317l-224 218q-23 22 -17 41.5t36 25.5l303 53l131 291q14 29 33.5 29.5t33.5 -27.5l141 -284l304 -38q31 -4 37.5 -23t-15.5 -42l-216 -230zM847 -63z" />
    <glyph glyph-name="uniE618" unicode="&#xe618;" 
d="M990 344q-22 -22 -53 -22t-53 22l-297 297v-694q0 -31 -22 -53t-53 -22t-53 22t-22 53v694l-297 -297q-22 -22 -53 -22t-53 22t-22 53.5t22 53.5l425 424q22 22 53 22t53 -22l425 -424q22 -22 22 -53.5t-22 -53.5z" />
    <glyph glyph-name="uniE619" unicode="&#xe619;" 
d="M506.5 842q-90.5 0 -172.5 -34t-146 -98t-98 -146.5t-34 -172.5t34 -172.5t98 -146t146 -98t172.5 -34.5t172.5 34.5t146 98t98 146t34 172.5t-34 172.5t-98 146.5t-146 98t-172.5 34zM785.5 112q-55.5 -56 -127.5 -85.5t-151 -29.5t-151 29.5t-128 85.5t-86 128t-30 151
t30 151t86 128t128 85.5t151 29.5t151 -29.5t127.5 -85.5t85.5 -128t30 -151t-30 -151t-85.5 -128zM338 473q0 83 47.5 131t129.5 48q72 0 117 -40t45 -104q0 -65 -88 -137q-52 -43 -52 -98l-1 -13h-61l1 7q0 54 10 78t47 56l24 22q50 45 50 89q0 38 -27 62t-68 24
q-108 0 -108 -125h-66zM541 206v-95h-70v95h70z" />
    <glyph glyph-name="uniE61A" unicode="&#xe61a;" 
d="M389 -5zM337 -4.5q0 21.5 15 36.5t36.5 15t36.5 -15t15 -36.5t-15 -37t-36.5 -15.5t-36.5 15.5t-15 37zM822 -5zM770 -4.5q0 21.5 15 36.5t36.5 15t37 -15t15.5 -36.5t-15.5 -37t-37 -15.5t-36.5 15.5t-15 37zM863 134l-496 -2l-16 2q-27 12 -36 70l-63 479v2
q-5 62 -43 96q-20 18 -42 22q-3 1 -6 1h-63q-13 0 -22 -8.5t-9 -21.5t9 -22t21 -9h59q24 -9 32 -43v-3l67 -501q4 -30 14 -53.5t20 -35.5t22 -20t18 -10t10 -3q1 -1 3 -1l20 -2h3l498 2q13 0 22 9t9 21.5t-9 21.5t-22 9zM952 604q13 53 -11 87q-24 33 -65 36h-3l-521 -2
q-13 0 -22 -9t-9 -21.5t9 -21.5t22 -9l520 2q13 -2 18 -11q6 -7 5 -22q-1 -1 -1 -3l-2 -15q0 -2 -1 -3q-1 -5 -1 -11l-37 -250q-1 -2 -1 -4q-2 -21 -9 -34.5t-11.5 -16t-8.5 -3.5l-405 -36q-12 -1 -20.5 -11t-6.5 -22q1 -12 9.5 -20t20.5 -8h3l405 36q22 2 42 18
q21 17 32 46q5 7 6 14z" />
    <glyph glyph-name="uniE61B" unicode="&#xe61b;" 
d="M779 10q15 0 25 -10.5t10 -25.5t-10 -26t-25 -11h-615q-15 0 -25 11t-10 26t10 25.5t25 10.5h615zM162 60l84 234l136 -143zM410 178l-137 144l373 389l138 -144zM809 597l-137 144l68 72q18 18 42 18t41 -18l55 -58q17 -18 17 -43t-17 -43z" />
    <glyph glyph-name="uniE61C" unicode="&#xe61c;" 
d="M512 -14q-11 14 -30 39.5t-67 96t-84.5 133t-67 133.5t-30.5 114q0 116 82 198t197 82t197 -82t82 -198q0 -43 -29 -112.5t-70 -137t-82 -129t-69.5 -100t-28.5 -37.5zM509 621q-49 0 -83.5 -35t-34.5 -84.5t34.5 -84t83.5 -34.5t84 34.5t35 84t-35 84.5t-84 35z" />
    <glyph glyph-name="uniE61D" unicode="&#xe61d;" horiz-adv-x="1026" 
d="M510 -128q-104 0 -198 40.5t-162.5 109t-109 162.5t-40.5 198t40.5 198t109 162.5t162.5 109t198 40.5t198 -40.5t162.5 -109t109 -162.5t40.5 -198t-40.5 -198t-109 -162.5t-162.5 -109t-198 -40.5zM510 784q-109 0 -201.5 -54t-146.5 -146.5t-54 -201.5t54 -201.5
t146.5 -146.5t201.5 -54t201.5 54t146.5 146.5t54 201.5t-54 201.5t-146.5 146.5t-201.5 54zM508.5 234q-22.5 0 -39 -16.5t-16.5 -39t16.5 -39t39 -16.5t39 16.5t16.5 39t-16.5 39t-39 16.5zM508.5 630q-58.5 0 -100 -41.5t-41.5 -99.5q0 -18 12.5 -30.5t30 -12.5t30 12.5
t12.5 30.5q0 23 16.5 39t40.5 16q23 0 39.5 -16.5t16.5 -40.5q0 -9 -36 -44q-19 -20 -29.5 -32t-22 -35t-11.5 -45v-42q0 -18 12.5 -30.5t30 -12.5t30 12.5t12.5 30.5v42q0 13 39 51q19 19 29.5 31t21 33t10.5 41q0 59 -42 101t-100.5 42z" />
    <glyph glyph-name="uniE61E" unicode="&#xe61e;" horiz-adv-x="1284" 
d="M642 151l-383 459h765z" />
    <glyph glyph-name="uniE61F" unicode="&#xe61f;" 
d="M155 382l1 -1l786 -1h1q15 3 25 14.5t10 26.5q0 11 -6 21q-2 7 -8 12l-388 345q-11 11 -26.5 11t-25.5 -11l-389 -345q-9 -9 -11 -21q-1 -5 -1 -11q0 -14 9 -25.5t23 -14.5zM155 382zM935 40h-17v240q0 18 -13 31t-31 13t-31 -13t-13 -31v-240h-111v148q0 18 -13 31
t-31.5 13t-31.5 -13t-13 -31v-148h-159v148q0 18 -13 31t-31.5 13t-31.5 -13t-13 -31v-148h-115v240q0 18 -13 31t-31.5 13t-31.5 -13t-13 -31v-240h-14q-18 0 -31 -13t-13 -31.5t13 -31.5t31 -13h771q19 0 32 13t13 31.5t-13 31.5t-32 13zM935 40z" />
    <glyph glyph-name="uniE620" unicode="&#xe620;" 
d="M822 20h-143l119 -138h-57l-115 138h-224l-114 -138h-57l119 138h-143q-46 0 -80 34t-34 80v619q0 47 34 80.5t80 33.5h176q15 29 48 29h167q33 0 47 -29h177q46 0 80 -33.5t34 -80.5v-619q0 -46 -34 -80t-80 -34zM669 77q29 0 50.5 21.5t21.5 50t-21.5 50t-50 21.5
t-50 -21.5t-21.5 -50.5q0 -32 19.5 -51.5t51.5 -19.5zM360 77q28 0 49.5 21.5t21.5 50t-21.5 50t-50 21.5t-50 -21.5t-21.5 -50.5q0 -31 21 -51t51 -20zM822 610q0 25 -16.5 41t-41.5 16h-504q-25 0 -41.5 -16t-16.5 -41v-224q0 -25 16.5 -41t41.5 -16h504q25 0 41.5 16
t16.5 41v224z" />
    <glyph glyph-name="uniE621" unicode="&#xe621;" 
d="M511 833q-102 0 -192.5 -43.5t-152 -116t-89 -171.5t-8.5 -204q23 -123 128 -228t229 -128q104 -19 203.5 8.5t171.5 88.5t116 152t44 193q0 91 -36 174.5t-96 143.5t-143 95.5t-175 35.5zM511 -5q-88 0 -166.5 38t-131.5 100.5t-77 148t-7 176.5q20 107 110.5 197.5
t197.5 110.5q91 16 176.5 -7.5t148 -76.5t100.5 -131.5t38 -166.5q0 -106 -52 -195.5t-141.5 -141.5t-195.5 -52zM522 671q-69 -2 -110.5 -48.5t-43.5 -126.5q0 -5 2.5 -8t7.5 -3h42q9 0 10 10q3 114 92 114q93 0 93 -93q0 -11 -1 -19t-5 -16t-5 -12t-9.5 -12t-10.5 -10
t-15 -11.5t-16 -12.5q-34 -28 -48.5 -56t-13.5 -67v-52q0 -10 10 -10h42q10 0 10 10v51v1q-5 50 41 84q25 21 32 27t21.5 20.5t18 24t7.5 25t4 35.5q0 72 -41 113.5t-114 41.5zM511 622zM540 118h-37q-5 0 -8.5 4t-3.5 9v36q0 5 3.5 9t8.5 4h37q5 0 9 -4t4 -9v-36
q0 -5 -4 -9t-9 -4z" />
    <glyph glyph-name="uniE622" unicode="&#xe622;" 
d="M512 530l293 -292h-586z" />
    <glyph glyph-name="uniE623" unicode="&#xe623;" 
d="M849 746q-186 73 -337 73t-337 -73q-17 -7 -27 -22t-10 -33v-566q0 -32 23 -55t56 -23h20v-59q0 -16 11.5 -27.5t27.5 -11.5h79q16 0 27.5 11.5t11.5 27.5v59h235v-59q0 -16 11.5 -27.5t28.5 -11.5h78q17 0 28.5 11.5t11.5 27.5v59h20q33 0 56 23t23 55v566q0 18 -10 33
t-27 22zM335 8h-39v39h39v-39zM728 8h-40v39h40v-39zM827 125q0 -8 -6 -13.5t-14 -5.5h-55h-5h-78h-5h-305h-4h-79h-4h-55q-8 0 -14 5.5t-6 13.5v566q175 69 315 69t315 -69v-566zM316 299q-33 0 -56 -23t-23 -55.5t23 -55.5t56 -23t56 23t23 55.5t-23 55.5t-56 23zM316 201
q-8 0 -14 6t-6 14t6 13.5t14 5.5t14 -5.5t6 -13.5t-6 -14t-14 -6zM708.5 300q-32.5 0 -55.5 -23t-23 -56t23 -56t55.5 -23t55.5 23t23 56t-23 56t-55.5 23zM709 201q-8 0 -14 6t-6 14t6 14t14 6t13.5 -6t5.5 -14t-5.5 -14t-13.5 -6zM237 588v-197q0 -16 11.5 -27.5
t27.5 -11.5h472q16 0 27.5 11.5t11.5 27.5v197q0 16 -11.5 27.5t-27.5 11.5h-472q-16 0 -27.5 -11.5t-11.5 -27.5zM296 548q0 9 5.5 14.5t13.5 5.5h394q8 0 13.5 -5.5t5.5 -14.5v-29v-89q0 -8 -5.5 -13.5t-13.5 -5.5h-394q-8 0 -13.5 5.5t-5.5 13.5v118zM432 699
q0 -12 8.5 -20.5t21.5 -8.5h98q12 0 20.5 8.5t8.5 20.5t-8.5 21t-20.5 9h-98q-13 0 -21.5 -9t-8.5 -21z" />
    <glyph glyph-name="uniE624" unicode="&#xe624;" 
d="M224 51l358 359q20 19 39 0l6 -7q19 -19 0 -38l-358 -359q-19 -19 -39 0l-6 7q-19 19 0 38zM582 358l-358 359q-19 19 0 38l6 7q20 19 39 0l358 -359q19 -19 0 -38l-6 -7q-10 -9 -22 -9t-17 9zM422 51l359 359q19 19 38 0l7 -7q19 -19 0 -38l-359 -359q-19 -19 -38 0
l-7 7q-19 19 0 38zM781 358l-359 359q-19 19 0 38l7 7q19 19 38 0l359 -359q19 -19 0 -38l-7 -7q-19 -19 -38 0z" />
    <glyph glyph-name="uniE625" unicode="&#xe625;" horiz-adv-x="1039" 
d="M1 -43v700h252v98v28v28h518v-28v-28v-98h252v-700h-1022zM715 755h-406v-98h406v98zM967 601h-910v-588h910v588zM477 503h56v-182h182v-56h-182v-168h-56v168h-168v56h168v182z" />
    <glyph glyph-name="uniE626" unicode="&#xe626;" 
d="M875 701q-70 77 -169 77q-77 0 -139 -49q-39 -30 -63 -74q-25 44 -64 74q-62 49 -139 49q-99 0 -168 -77q-69 -76 -69 -183q0 -70 32 -131q27 -55 89 -135q125 -162 304 -303q7 -5 14 -5h1q8 0 14 5q179 141 304 303q62 81 90 135q32 61 32 131q0 107 -69 183zM301 733
q61 0 110.5 -38.5t70.5 -101.5q1 -3 2 -5q5 -10 17 -11q6 -1 11 1q10 4 13 15q21 63 71 101.5t110 38.5q80 0 136.5 -63t56.5 -152q0 -59 -27 -110l-1 -1q-25 -50 -85 -128q-116 -151 -282 -284q-166 132 -282 283q-61 80 -86 129v1q-27 51 -27 110q0 89 56.5 152t135.5 63z
" />
    <glyph glyph-name="uniE627" unicode="&#xe627;" 
d="M353 154q22 0 37.5 15.5t15.5 37.5t-15.5 37.5t-37.5 15.5t-38 -15.5t-16 -37.5t16 -37.5t38 -15.5zM352.5 225q7.5 0 12.5 -5.5t5 -12.5t-5 -12.5t-12.5 -5.5t-12.5 5.5t-5 12.5t5 12.5t12.5 5.5zM831 614v36q0 58 -41.5 99.5t-100.5 41.5h-354q-59 0 -100.5 -41.5
t-41.5 -99.5v-36v-319v-70q0 -53 34 -92.5t85 -47.5l-78 -78q-5 -5 -5 -12.5t5 -12.5t12.5 -5t12.5 5l101 101h304l101 -101q5 -5 12.5 -5t12.5 5t5 12.5t-5 12.5l-78 78q51 8 85 47.5t34 92.5v70v319zM795 225q0 -44 -31 -75.5t-75 -31.5h-354q-44 0 -75 31.5t-31 75.5v70
h566v-70zM795 331h-566v248h566v-248zM795 614h-566v36q0 44 31 75t75 31h354q44 0 75 -31t31 -75v-36zM671 154q22 0 38 15.5t16 37.5t-16 37.5t-38 15.5t-37.5 -15.5t-15.5 -37.5t15.5 -37.5t37.5 -15.5zM671.5 225q7.5 0 12.5 -5.5t5 -12.5t-5 -12.5t-12.5 -5.5
t-12.5 5.5t-5 12.5t5 12.5t12.5 5.5zM618 703h-212q-8 0 -13 -5.5t-5 -12.5t5 -12.5t13 -5.5h212q8 0 13 5.5t5 12.5t-5 12.5t-13 5.5z" />
    <glyph glyph-name="uniE628" unicode="&#xe628;" 
d="M512 -13l-11 7q-202 134 -310 278t-103 272q2 64 33.5 115t87.5 83q45 25 88.5 31.5t75 -0.5t61 -24t46.5 -33t32 -34q15 18 32 34.5t46.5 33.5t61 24t75 0t88.5 -32q56 -32 87.5 -83.5t33.5 -114.5q5 -128 -103 -272.5t-310 -279.5zM332 737q-49 0 -103 -29
q-97 -56 -102 -166q-1 -27 4.5 -58t28.5 -83.5t62 -106t113.5 -123.5t175.5 -138q100 68 175 138t114 123.5t61.5 106t28 83.5t4.5 58q-2 54 -28.5 96.5t-73.5 69.5q-47 26 -91.5 28.5t-73.5 -10.5t-53 -33.5t-34 -34.5t-12 -19l-16 -32l-17 32l-5 7q-4 6 -11 14t-17.5 19
t-24 21t-29 18.5t-35.5 13.5t-41 5z" />
    <glyph glyph-name="uniE629" unicode="&#xe629;" 
d="M531 608v58h111q8 0 13.5 5.5t5.5 13.5t-5.5 13.5t-13.5 5.5h-264q-9 0 -14.5 -5.5t-5.5 -13.5t5.5 -13.5t14.5 -5.5h115v-58q-100 -5 -184 -57.5t-132.5 -138.5t-48.5 -187v-52h768v52q0 101 -48.5 187.5t-132.5 138.5t-184 57zM858 211h-692v14q0 93 46.5 173t126 126
t173.5 46t173.5 -46t126 -126t46.5 -173v-14zM877 102h-730q-8 0 -13.5 -5.5t-5.5 -13.5t5.5 -13.5t13.5 -5.5h730q8 0 13.5 5.5t5.5 13.5t-5.5 13.5t-13.5 5.5z" />
    <glyph glyph-name="uniE62A" unicode="&#xe62a;" 
d="M884 -63h-747q-33 0 -57 24t-24 58v573q0 33 24 57t57 24h747q33 0 56.5 -24t23.5 -57v-573q0 -34 -23.5 -58t-56.5 -24zM137 627q-14 0 -24 -10.5t-10 -24.5v-573q0 -15 10 -25t24 -10h747q14 0 24 10t10 25v573q0 14 -10 24.5t-24 10.5h-747zM734 650h-46v101
q0 15 -10 25t-25 10h-282q-15 0 -25 -10t-10 -25v-101h-46v101q0 34 23.5 57.5t57.5 23.5h282q34 0 57.5 -23.5t23.5 -57.5v-101zM685 282h-349q-10 0 -16.5 7t-6.5 16.5t6.5 16t16.5 6.5h349q9 0 16 -6.5t7 -16t-7 -16.5t-16 -7zM510.5 108q-9.5 0 -16.5 6.5t-7 16.5v349
q0 9 7 16t16.5 7t16 -7t6.5 -16v-349q0 -10 -6.5 -16.5t-16 -6.5z" />
    <glyph glyph-name="uniE62B" unicode="&#xe62b;" horiz-adv-x="1039" 
d="M209 87q-14 0 -24.5 10t-10.5 25v294q0 15 10.5 25t25 10t24.5 -10t10 -25v-294q0 -15 -10 -25t-25 -10zM209 87zM504 -25q-80 0 -175 33t-134 70q-21 21 -21 44q0 14 10.5 24.5t24.5 10.5q13 0 22.5 -8t11.5 -20q20 -23 108.5 -54.5t159.5 -28.5q75 2 162.5 31.5
t107.5 52.5q2 11 12 19t22 8q14 0 24.5 -10.5t10.5 -24.5q0 -37 -64.5 -72t-141.5 -54t-131 -21h-9zM504 -25zM512 224q-9 0 -16 4l-476 249q-19 10 -19 31t19 31l476 250q16 8 32 0l476 -250q19 -10 19 -31t-19 -31l-476 -249q-7 -4 -16 -4zM112 508l400 -209l401 209
l-401 210zM112 508zM815 87q-15 0 -25 10t-10 25v294q0 15 10 25t24.5 10t25 -10t10.5 -25v-294q0 -15 -10.5 -25t-24.5 -10zM815 87zM988 44q-14 0 -24.5 10t-10.5 25v429q0 15 10.5 25t25 10t24.5 -10t10 -25v-429q0 -15 -10 -25t-25 -10zM988 44z" />
    <glyph glyph-name="uniE62C" unicode="&#xe62c;" 
d="M512 258l-251 252h502z" />
    <glyph glyph-name="uniE62D" unicode="&#xe62d;" 
d="M512 800q-119 0 -203.5 -85.5t-84.5 -205.5q0 -45 29.5 -117.5t72 -143.5t85 -135t72 -105t29.5 -40q12 15 31.5 42t69 101t87.5 139t69 139.5t31 119.5q0 120 -84.5 205.5t-203.5 85.5zM512 416q-40 0 -68 28t-28 68t28 68t68 28t68 -28t28 -68t-28 -68t-68 -28z" />
    <glyph glyph-name="uniE62E" unicode="&#xe62e;" 
d="M512 -128q-139 0 -257 68.5t-186.5 186.5t-68.5 257t68.5 257t186.5 186.5t257 68.5t257 -68.5t186.5 -186.5t68.5 -257t-68.5 -257t-186.5 -186.5t-257 -68.5zM512 799q-113 0 -208.5 -55.5t-151 -151t-55.5 -208.5t55.5 -208.5t151 -151t208.5 -55.5t208.5 55.5
t151 151t55.5 208.5t-55.5 208.5t-151 151t-208.5 55.5zM593 546q11 -34 -26 -79q-129 -101 -125 -215h68q0 65 46 120q139 104 102 208q-19 38 -59.5 65.5t-86.5 22.5q-21 -1 -43 -7t-31 -11q-48 -13 -73.5 -54t-23.5 -98l75 11q-1 23 17.5 47t45.5 37t59.5 2.5t54.5 -49.5
zM533 100h-106v88h106v-88z" />
    <glyph glyph-name="uniE62F" unicode="&#xe62f;" 
d="M838 344q-17 0 -29 -11.5t-12 -28.5v-226q0 -1 -1 -1h-648q-1 0 -1 1v530q0 1 1 1h339h5q17 0 29 12t12 28.5t-12 28.5t-29 12v1h-344q-34 0 -58.5 -24.5t-24.5 -58.5v-530q0 -34 24.5 -58t58.5 -24h648q34 0 58 24t24 58v226q0 17 -11.5 28.5t-28.5 11.5zM876 772h-222
v-1q-17 0 -29 -11.5t-12 -28.5t12 -29t29 -12q1 0 5 1h152l-325 -275q-14 -12 -14 -31q0 -17 12 -28.5t29 -11.5q14 0 26 9l338 286v-174q0 -16 12 -28t29 -12t29 12t12 28v224q0 34 -24.5 58t-58.5 24z" />
    <glyph glyph-name="uniE630" unicode="&#xe630;" 
d="M80 401q0 91 35 174t95 143t143 95t174 35t174 -35t143 -95t95.5 -143t35.5 -174t-35.5 -174t-95.5 -143t-143 -95.5t-174 -35.5t-174 35.5t-143 95.5t-95 143t-35 174zM915 400.5q0 105.5 -52 195t-141 141.5t-194.5 52t-195 -52t-141.5 -141.5t-52 -195t52 -194.5
t141.5 -141t195 -52t194.5 52t141 141t52 194.5zM473 236q-17 -16 -17 -42t17.5 -43.5t43.5 -17.5q25 0 43 17q19 18 19 44t-18 43q-17 17 -44 17t-44 -18zM407 609q-44 -44 -44 -119q0 -6 4.5 -10.5t10.5 -4.5h67q6 0 10.5 4.5t4.5 10.5q0 37 14 56q14 21 50 21
q29 0 43 -15t14 -41q0 -19 -14 -37l-10 -12q-61 -53 -75 -82q-14 -26 -14 -67v-10q0 -6 4.5 -10.5t10.5 -4.5h68q6 0 10.5 4.5t4.5 10.5v10q0 20 8 35q8 16 24 29q45 40 55 51q27 36 27 87q0 64 -43 102q-41 37 -109 37q-77 0 -121 -45z" />
    <glyph glyph-name="uniE631" unicode="&#xe631;" 
d="M755 683l-243 -242l-243 242q-10 10 -23.5 10t-23.5 -9.5t-10 -23.5t10 -24l243 -243l-243 -243q-10 -9 -10 -23t10 -24t23.5 -10t23.5 10l243 243l243 -243q10 -10 23.5 -10t23.5 10t10 24t-10 23l-243 243l243 243q10 10 10 24t-10 23.5t-23.5 9.5t-23.5 -10z" />
    <glyph glyph-name="uniE632" unicode="&#xe632;" 
d="M64 160l448 448l448 -448h-896z" />
    <glyph glyph-name="uniE633" unicode="&#xe633;" 
d="M964 746v-33q-53 -6 -74 -27.5t-45 -80.5l-302 -778h-36l-339 794q-25 57 -43.5 71t-67.5 22v32h445v-32q-69 0 -91.5 -9.5t-22.5 -46.5q0 -15 17 -56q16 -42 23 -58l173 -419l169 436q12 29 19 52q7 22 7 40q0 61 -114 61v32h282z" />
    <glyph glyph-name="uniE634" unicode="&#xe634;" 
d="M1001 318l-435 -424q-23 -22 -54.5 -22t-54.5 22l-435 424q-23 22 -23 53t22.5 53t54.5 22t55 -22l303 -296v693q0 31 23 53t54.5 22t54 -22t22.5 -53v-693l304 296q23 22 54.5 22t54 -22t22.5 -53t-22 -53z" />
    <glyph glyph-name="uniE635" unicode="&#xe635;" horiz-adv-x="1597" 
d="M1566 559l-576 -574q-25 -44 -64.5 -72t-83.5 -35.5t-88.5 0t-83.5 35.5t-64 72l-576 574q-25 44 -29.5 92.5t11 91t44.5 77.5t72.5 55.5t93.5 20.5h1152q50 0 93.5 -20.5t72.5 -55.5t44.5 -77.5t11 -91t-29.5 -92.5z" />
    <glyph glyph-name="uniE636" unicode="&#xe636;" horiz-adv-x="1598" 
d="M1567 209l-576 575q-25 43 -64.5 71.5t-83.5 36t-88.5 0t-84 -36t-64.5 -71.5l-576 -575q-25 -43 -29.5 -92t11 -91.5t44.5 -77.5t72.5 -55.5t93.5 -20.5h1153q50 0 93.5 20.5t72.5 55.5t44.5 77.5t11 91.5t-29.5 92z" />
    <glyph glyph-name="uniE637" unicode="&#xe637;" 
d="M375 384l245 -228l29 29l-217 199l217 199l-29 29zM620 612z" />
    <glyph glyph-name="uniE638" unicode="&#xe638;" 
d="M404 612l-29 -29l217 -199l-217 -199l29 -29l245 228zM404 612z" />
    <glyph glyph-name="uniE639" unicode="&#xe639;" 
d="M284 -124l-50 50l456 456l-447 447l50 50l497 -497z" />
    <glyph glyph-name="uniE63A" unicode="&#xe63a;" 
d="M740 -124l50 50l-456 456l447 447l-50 50l-497 -497z" />
    <glyph glyph-name="uniE63B" unicode="&#xe63b;" 
d="M683 752h-341q-32 0 -54.5 -22.5t-22.5 -54.5v-775q0 -32 22.5 -54.5t54.5 -22.5h341q32 0 54.5 22.5t22.5 54.5v775q0 32 -22.5 54.5t-54.5 22.5zM466 690h93q6 0 10.5 -4.5t4.5 -11t-4.5 -11t-10.5 -4.5h-93q-7 0 -11.5 4.5t-4.5 11t4.5 11t11.5 4.5zM512.5 -146
q-19.5 0 -33 13.5t-13.5 33t13.5 33t33 13.5t33 -13.5t13.5 -33t-13.5 -33t-33 -13.5zM729 -22h-433v619h433v-619z" />
    <glyph glyph-name="uniE63C" unicode="&#xe63c;" 
d="M133 -60l-69 67l391 379l-391 379l69 67l460 -446zM497 -60l-69 67l390 379l-390 379l69 67l459 -446z" />
    <glyph glyph-name="uniE63D" unicode="&#xe63d;" 
d="M133 -60l-69 67l391 379l-391 379l69 67l460 -446zM497 -60l-69 67l390 379l-390 379l69 67l459 -446z" />
  </font>
</defs>
</svg>
